# Blender v2.79 (sub 0) OBJ File: ''
# www.blender.org
mtllib axe.mtl
o axe
v -0.276785 0.780876 0.023689
v -0.276784 0.780876 -0.026227
v -0.133727 0.780876 -0.039558
v -0.133727 0.780876 0.037019
v -0.333174 1.170714 -0.028462
v -0.333174 1.170714 0.025926
v -0.134099 1.108901 0.037020
v -0.134099 1.108901 -0.039557
v -0.343967 1.067949 -0.028462
v -0.133954 1.023735 -0.039557
v -0.343967 1.067949 0.025926
v -0.133954 1.023735 0.037020
v -0.335278 1.130932 -0.028462
v -0.134071 1.063963 -0.039557
v -0.335278 1.130932 0.025926
v -0.134071 1.063963 0.037020
v -0.580214 0.185504 -0.005600
v -0.946509 0.165585 0.000919
v -0.993139 0.417581 0.000509
v -0.832109 -0.239705 -0.001269
v -0.566571 0.492563 0.011694
v -0.580214 0.185504 0.003062
v -0.566571 0.492563 -0.014232
v -0.509400 0.653627 -0.018364
v -0.509400 0.653627 0.015826
v -0.412804 0.749732 -0.023121
v -0.412804 0.749732 0.020583
v -0.708264 1.336495 -0.012441
v -0.708264 1.336495 0.009904
v -0.764903 1.088441 0.009904
v -0.803678 0.772249 0.009903
v -0.803678 0.772249 -0.012442
v -0.764903 1.088441 -0.012441
v -0.996720 0.768810 -0.001269
v -0.949310 1.096609 -0.001268
v -0.728473 1.288124 0.009904
v -0.728473 1.288124 -0.012441
v -0.888470 1.316994 -0.001268
v -0.776160 0.438951 0.009903
v -0.776160 0.438951 -0.012442
v -0.804623 0.568564 0.009903
v -0.809938 0.679663 0.009903
v -0.809938 0.679663 -0.012442
v -1.000831 0.651734 -0.001269
v -0.804623 0.568564 -0.012442
v -0.998904 0.534657 -0.001269
v 0.148686 0.780876 -0.051851
v 0.148459 1.023735 -0.051850
v 0.148459 1.023735 0.049314
v 0.148686 0.780876 0.049313
v 0.148342 1.063963 -0.051850
v 0.148342 1.063963 0.049314
v 0.148314 1.094241 -0.051850
v 0.148314 1.094241 0.049314
v -0.049473 1.063963 0.094434
v -0.022888 1.063963 0.111509
v -0.022917 1.094241 0.111510
v -0.049501 1.095581 0.094434
v -0.049356 1.023735 0.094434
v -0.022772 1.023735 0.111509
v -0.049501 1.095581 -0.096971
v -0.022917 1.094241 -0.114046
v -0.022888 1.063963 -0.114047
v -0.049473 1.063963 -0.096972
v -0.022772 1.023735 -0.114047
v -0.049356 1.023735 -0.096972
v -0.049129 0.780876 0.094434
v -0.022544 0.780876 0.111509
v -0.022544 0.780876 -0.114047
v -0.049129 0.780876 -0.096972
v 0.041602 0.772640 -0.129747
v 0.079723 0.780876 -0.121396
v 0.079723 0.780876 0.118858
v 0.041602 0.772640 0.127208
v 0.023615 1.094241 0.120579
v 0.023615 1.094241 -0.123116
v 0.079351 1.094241 0.118859
v 0.079351 1.094241 -0.121395
v 0.023760 1.023735 -0.123116
v 0.079496 1.023735 -0.121396
v 0.023760 1.023735 0.120578
v 0.079496 1.023735 0.118858
v 0.023644 1.063963 -0.123116
v 0.079379 1.063963 -0.121396
v 0.023644 1.063963 0.120578
v 0.079379 1.063963 0.118858
v 0.114206 1.063963 0.096831
v 0.114177 1.094241 0.096832
v 0.114322 1.023735 0.096831
v 0.114177 1.094241 -0.099368
v 0.114206 1.063963 -0.099369
v 0.114322 1.023735 -0.099369
v 0.114549 0.780876 0.096831
v 0.114549 0.780876 -0.099369
v -0.088811 1.063963 0.053902
v -0.088839 1.099595 0.053902
v -0.088694 1.023735 0.053902
v -0.088839 1.099595 -0.056438
v -0.088811 1.063963 -0.056438
v -0.088694 1.023735 -0.056438
v -0.104688 0.765939 0.053901
v -0.104688 0.765939 -0.056439
v -0.049129 0.427833 -0.096972
v -0.022544 0.456732 -0.114047
v -0.022544 0.456732 0.111509
v -0.049129 0.427833 0.094434
v 0.014204 0.521808 -0.132802
v 0.014204 0.521808 0.130264
v -0.088467 0.402632 -0.056439
v -0.088467 0.402632 0.053901
v -0.088467 0.739269 -0.056439
v -0.088467 0.739269 0.053901
v -0.049129 0.742041 -0.096972
v -0.049129 0.742041 0.094434
v 0.022911 0.752379 0.130264
v 0.022911 0.752379 -0.132802
v -0.022544 0.745220 0.111509
v -0.022544 0.745220 -0.114047
v -0.857774 1.370379 -0.001268
v 0.025127 -3.574162 -0.006141
v 0.063814 -3.574162 -0.077017
v 0.123060 -3.574162 -0.037631
v 0.025127 1.096612 -0.006140
v 0.121353 1.096612 -0.035225
v 0.066421 1.096612 -0.088661
v 0.119139 -3.574162 0.031231
v 0.119139 1.096612 0.023027
v 0.070934 -3.574162 0.098219
v 0.065894 1.096612 0.070565
v -0.016414 -3.574162 0.082199
v -0.015402 1.096612 0.086315
v -0.075880 -3.574162 0.024324
v -0.075880 1.096612 0.032732
v -0.077206 -3.574162 -0.037076
v -0.076074 1.096612 -0.037647
v -0.016465 -3.574162 -0.081570
v -0.013994 1.096612 -0.076882
v 0.061688 -2.795700 -0.070554
v 0.118960 -2.795700 -0.035634
v 0.063814 -2.017236 -0.077018
v 0.118960 -2.017236 -0.036532
v 0.065277 -1.238775 -0.074672
v 0.127773 -1.238775 -0.037423
v 0.065719 -0.460312 -0.074884
v 0.109820 -0.460312 -0.035383
v 0.061688 0.318150 -0.070554
v 0.127913 0.318150 -0.039256
v 0.133600 -2.795700 0.038936
v 0.130769 -2.017236 0.031209
v 0.130769 -1.238775 0.031209
v 0.126870 -0.460312 0.034698
v 0.125730 0.318150 0.033229
v 0.062090 -2.795700 0.071295
v 0.066156 -2.017236 0.074659
v 0.072045 -1.238775 0.087186
v 0.068069 -0.460312 0.085130
v 0.068069 0.318150 0.085130
v -0.012584 -2.795700 0.060749
v -0.015997 -2.017236 0.068045
v -0.015402 -1.238775 0.086315
v -0.012584 -0.460312 0.074808
v -0.016836 0.318150 0.085296
v -0.076663 -2.795700 0.023150
v -0.073306 -2.017236 0.028773
v -0.069471 -1.238775 0.038542
v -0.068388 -0.460312 0.029066
v -0.076663 0.318150 0.031592
v -0.077206 -2.795700 -0.037076
v -0.077206 -2.017236 -0.037076
v -0.069332 -1.238775 -0.039610
v -0.061974 -0.460312 -0.033234
v -0.077206 0.318150 -0.037980
v -0.013994 -2.795700 -0.076883
v -0.016245 -2.017236 -0.079153
v -0.013845 -1.238775 -0.074542
v -0.014835 -0.460313 -0.087621
v -0.015853 0.318150 -0.082157
vt 0.946180 0.720135
vt 0.938979 0.711477
vt 0.976871 0.660706
vt 0.987919 0.673989
vt 0.861658 0.775846
vt 0.846906 0.767995
vt 0.873547 0.711663
vt 0.893037 0.722340
vt 0.323996 0.695433
vt 0.357848 0.839562
vt 0.253155 0.816523
vt 0.253041 0.695007
vt 0.357933 0.841994
vt 0.323900 0.696194
vt 0.250663 0.696717
vt 0.250778 0.820361
vt 0.353484 0.871199
vt 0.253213 0.836652
vt 0.352426 0.891182
vt 0.253228 0.859136
vt 0.352671 0.891339
vt 0.353522 0.873964
vt 0.250837 0.840842
vt 0.251069 0.860904
vt 0.476673 0.394605
vt 0.662638 0.384008
vt 0.686274 0.511928
vt 0.604458 0.178625
vt 0.852114 0.830434
vt 0.813814 0.874035
vt 0.812564 0.872532
vt 0.848373 0.825937
vt 0.872817 0.794745
vt 0.877750 0.800676
vt 0.901386 0.758314
vt 0.907691 0.765896
vt 0.788136 0.908041
vt 0.780829 0.904423
vt 0.570997 0.851093
vt 0.590593 0.691298
vt 0.589514 0.691520
vt 0.569925 0.851250
vt 0.687945 0.690122
vt 0.663900 0.856375
vt 0.552586 0.952008
vt 0.542373 0.975621
vt 0.551522 0.952124
vt 0.541313 0.976559
vt 0.633043 0.968149
vt 0.470782 0.549950
vt 0.576686 0.522857
vt 0.477580 0.395064
vt 0.575612 0.523148
vt 0.469727 0.550265
vt 0.441884 0.631476
vt 0.591071 0.588360
vt 0.392934 0.680288
vt 0.593757 0.644507
vt 0.392303 0.679859
vt 0.592676 0.644748
vt 0.690030 0.630743
vt 0.440888 0.631539
vt 0.589991 0.588624
vt 0.689053 0.571365
vt 0.986508 0.805582
vt 0.985890 0.876851
vt 0.954647 0.882337
vt 0.954033 0.798134
vt 0.984276 0.901369
vt 0.953374 0.899825
vt 0.982934 0.922861
vt 0.953183 0.921681
vt 0.802773 0.899130
vt 0.834676 0.903120
vt 0.834426 0.917043
vt 0.802596 0.915235
vt 0.803126 0.880448
vt 0.835053 0.884558
vt 0.741191 0.793844
vt 0.746332 0.767026
vt 0.758138 0.767123
vt 0.754954 0.794048
vt 0.773887 0.767206
vt 0.771008 0.794139
vt 0.804537 0.776574
vt 0.835644 0.774240
vt 0.866925 0.768899
vt 0.859935 0.794519
vt 0.870797 0.682112
vt 0.870179 0.673012
vt 0.926642 0.704401
vt 0.918809 0.708710
vt 0.966995 0.072439
vt 0.935429 0.043203
vt 0.110527 0.016756
vt 0.077310 0.040260
vt 0.874369 0.659968
vt 0.935280 0.694037
vt 0.882576 0.646125
vt 0.942517 0.679895
vt 0.776059 0.746067
vt 0.872878 0.738614
vt 0.774871 0.726183
vt 0.862128 0.722716
vt 0.872399 0.775882
vt 0.861175 0.884430
vt 0.890958 0.793585
vt 0.885695 0.887074
vt 0.760312 0.746198
vt 0.759610 0.726531
vt 0.748649 0.746287
vt 0.747888 0.726779
vt 0.860532 0.902998
vt 0.884831 0.905000
vt 0.860062 0.916752
vt 0.884191 0.918803
vt 0.924536 0.904800
vt 0.924422 0.920802
vt 0.924405 0.885531
vt 0.745137 0.692534
vt 0.758550 0.692225
vt 0.741268 0.643803
vt 0.757336 0.643192
vt 0.774702 0.692066
vt 0.773586 0.642624
vt 0.924932 0.798522
vt 0.854839 0.691011
vt 0.843897 0.639441
vt 0.892988 0.640468
vt 0.941881 0.668140
vt 0.909666 0.638633
vt 0.934847 0.652948
vt 0.863120 0.020262
vt 0.184509 0.000000
vt 0.700897 0.008853
vt 0.347262 0.000155
vt 0.713409 0.903731
vt 0.747058 0.902178
vt 0.747156 0.919121
vt 0.713450 0.923771
vt 0.713408 0.886061
vt 0.746803 0.884015
vt 0.712864 0.870015
vt 0.725957 0.841293
vt 0.740571 0.841832
vt 0.730119 0.870678
vt 0.756272 0.842550
vt 0.745345 0.871236
vt 0.713442 0.785407
vt 0.742256 0.778307
vt 0.849124 0.850453
vt 0.831063 0.874851
vt 0.875584 0.697723
vt 0.903395 0.713051
vt 0.874669 0.945704
vt 0.845312 0.927907
vt 0.862697 0.174375
vt 0.921764 0.154891
vt 0.068501 0.130734
vt 0.133496 0.157995
vt 0.980902 0.128044
vt 0.000000 0.086291
vt 0.718477 0.173637
vt 0.280804 0.168030
vt 0.870798 0.848354
vt 0.905361 0.943533
vt 0.966462 0.847926
vt 0.982660 0.940605
vt 0.875489 0.794695
vt 0.980142 0.797968
vt 0.744146 0.758542
vt 0.804543 0.757977
vt 0.741259 0.624785
vt 0.803364 0.626322
vt 0.048015 0.068590
vt 1.000000 0.108730
vt 0.835261 0.758297
vt 0.870968 0.752524
vt 0.832383 0.634377
vt 0.865925 0.655473
vt 0.891918 0.740311
vt 0.880063 0.769503
vt 0.970306 0.746688
vt 0.980219 0.774434
vt 0.617378 0.992245
vt 0.632843 0.965348
vt 0.663498 0.854307
vt 0.687385 0.689146
vt 0.689457 0.630158
vt 0.688486 0.571169
vt 0.685702 0.512161
vt 0.662221 0.385114
vt 0.604447 0.181008
vt 0.738505 0.964182
vt 0.753480 0.964413
vt 0.617474 0.995225
vt 0.228184 0.538641
vt 0.238690 0.557888
vt 0.254778 0.547192
vt 0.190512 0.406407
vt 0.236973 0.420450
vt 0.210450 0.446250
vt 0.253713 0.528492
vt 0.235904 0.392325
vt 0.240623 0.510302
vt 0.210196 0.369371
vt 0.216903 0.514652
vt 0.170944 0.361767
vt 0.200754 0.530368
vt 0.141743 0.387639
vt 0.200394 0.547042
vt 0.141649 0.421620
vt 0.216889 0.559125
vt 0.171623 0.440563
vt 0.244937 0.003844
vt 0.244709 0.115593
vt 0.232064 0.115593
vt 0.232140 0.003844
vt 0.244937 0.227342
vt 0.232209 0.227342
vt 0.244450 0.339091
vt 0.231850 0.339091
vt 0.244391 0.450840
vt 0.232613 0.450840
vt 0.244709 0.562588
vt 0.232114 0.562588
vt 0.245465 0.674337
vt 0.231860 0.674337
vt 0.219906 0.115593
vt 0.220286 0.003844
vt 0.220882 0.227342
vt 0.220882 0.339091
vt 0.220167 0.450840
vt 0.220329 0.562588
vt 0.221663 0.674337
vt 0.207080 0.115593
vt 0.206403 0.003844
vt 0.207499 0.227342
vt 0.207368 0.339091
vt 0.206913 0.450840
vt 0.206913 0.562588
vt 0.207856 0.674337
vt 0.189573 0.115593
vt 0.191031 0.003844
vt 0.189762 0.227342
vt 0.191520 0.339091
vt 0.191057 0.450840
vt 0.191211 0.562588
vt 0.191520 0.674337
vt 0.176013 0.115593
vt 0.176232 0.003844
vt 0.177058 0.227342
vt 0.178814 0.339091
vt 0.177358 0.450840
vt 0.177334 0.562588
vt 0.177548 0.674337
vt 0.166180 0.115593
vt 0.166180 0.003844
vt 0.166180 0.227342
vt 0.165338 0.339091
vt 0.165921 0.450840
vt 0.166045 0.562588
vt 0.166034 0.674337
vt 0.153172 0.115593
vt 0.153179 0.003844
vt 0.153358 0.227342
vt 0.153368 0.339091
vt 0.152413 0.450840
vt 0.153024 0.562588
vt 0.153172 0.674337
vt 0.261128 0.562588
vt 0.261276 0.674337
vt 0.260517 0.450840
vt 0.261472 0.339091
vt 0.261462 0.227342
vt 0.261276 0.115593
vt 0.261283 0.003844
vn 0.0366 -0.6895 0.7233
vn 0.0366 -0.6895 -0.7233
vn -0.3678 -0.6491 -0.6659
vn -0.3678 -0.6491 0.6659
vn 0.2119 0.6592 -0.7215
vn 0.2119 0.6592 0.7215
vn 0.0547 0.7244 0.6872
vn 0.0547 0.7244 -0.6872
vn -0.0458 -0.0010 -0.9989
vn -0.2248 0.0002 -0.9744
vn -0.0458 -0.0010 0.9989
vn -0.2248 0.0002 0.9744
vn -0.0461 0.0051 -0.9989
vn -0.2037 0.0013 -0.9790
vn -0.0461 0.0051 0.9989
vn -0.2037 0.0013 0.9790
vn 0.7179 -0.2275 -0.6579
vn -0.8644 -0.5028 -0.0008
vn -0.9211 -0.3891 0.0103
vn -0.2560 -0.9666 -0.0019
vn 0.6528 -0.1441 0.7437
vn 0.7210 -0.2260 0.6550
vn 0.6528 -0.1441 -0.7437
vn 0.5363 -0.3622 -0.7623
vn 0.5363 -0.3622 0.7623
vn 0.2837 -0.5560 -0.7812
vn 0.2837 -0.5560 0.7812
vn 0.1944 0.6994 -0.6877
vn 0.1944 0.6994 0.6877
vn -0.0481 0.0060 0.9988
vn -0.0441 0.0032 0.9990
vn -0.0441 0.0032 -0.9990
vn -0.0481 0.0060 -0.9988
vn -0.9961 0.0885 0.0000
vn -0.9843 0.1763 0.0000
vn -0.0520 0.0167 0.9985
vn -0.0520 0.0167 -0.9985
vn -0.9444 0.3287 0.0000
vn -0.0208 -0.0156 0.9996
vn -0.0341 -0.0348 -0.9988
vn -0.0359 -0.0067 0.9993
vn -0.0414 -0.0020 0.9991
vn -0.0414 -0.0020 -0.9991
vn -1.0000 0.0050 0.0000
vn -0.0376 -0.0107 -0.9992
vn -0.9961 -0.0876 -0.0027
vn 0.7283 -0.6438 -0.2344
vn 0.9519 0.0018 -0.3064
vn 0.9519 0.0018 0.3064
vn 0.7283 -0.6438 0.2344
vn 0.9518 0.0018 -0.3065
vn 0.9518 0.0018 0.3065
vn 0.7278 0.6445 -0.2344
vn 0.7278 0.6445 0.2344
vn -0.6332 -0.0012 0.7739
vn -0.3726 -0.0007 0.9280
vn -0.2699 0.6641 0.6972
vn -0.4327 0.6916 0.5782
vn -0.6153 0.0041 0.7883
vn -0.3787 0.0006 0.9255
vn -0.4327 0.6916 -0.5782
vn -0.2699 0.6641 -0.6972
vn -0.3726 -0.0007 -0.9280
vn -0.6332 -0.0012 -0.7739
vn -0.3787 0.0006 -0.9255
vn -0.6153 0.0041 -0.7883
vn -0.5927 -0.0278 0.8049
vn -0.4028 0.0363 0.9145
vn -0.4028 0.0363 -0.9145
vn -0.5927 -0.0278 -0.8049
vn 0.2398 -0.5094 -0.8264
vn 0.3225 -0.6243 -0.7114
vn 0.3225 -0.6243 0.7114
vn 0.2398 -0.5094 0.8264
vn -0.0590 0.6828 0.7282
vn -0.0590 0.6828 -0.7282
vn 0.2220 0.6524 0.7246
vn 0.2220 0.6524 -0.7246
vn -0.0726 0.0054 -0.9973
vn 0.3110 0.0050 -0.9504
vn -0.0726 0.0054 0.9973
vn 0.3110 0.0050 0.9504
vn -0.0808 -0.0002 -0.9967
vn 0.2929 0.0005 -0.9561
vn -0.0808 -0.0002 0.9967
vn 0.2929 0.0005 0.9561
vn 0.6859 0.0013 0.7277
vn 0.5111 0.6668 0.5423
vn 0.6860 0.0013 0.7276
vn 0.5111 0.6668 -0.5423
vn 0.6859 0.0013 -0.7277
vn 0.6860 0.0013 -0.7276
vn 0.5115 -0.6663 0.5425
vn 0.5115 -0.6663 -0.5425
vn -0.5468 -0.0010 0.8372
vn -0.2611 0.7689 0.5836
vn -0.5440 0.0078 0.8390
vn -0.2610 0.7689 -0.5836
vn -0.5468 -0.0010 -0.8372
vn -0.5440 0.0078 -0.8390
vn -0.7384 -0.3582 0.5713
vn -0.7384 -0.3582 -0.5713
vn 0.0146 -0.7032 -0.7108
vn 0.3041 -0.5365 -0.7872
vn 0.3041 -0.5365 0.7872
vn 0.0146 -0.7032 0.7108
vn 0.5504 -0.2343 -0.8014
vn 0.5504 -0.2343 0.8014
vn -0.4875 -0.8060 -0.3358
vn -0.4875 -0.8060 0.3358
vn -0.8822 -0.1861 -0.4325
vn -0.8822 -0.1861 0.4325
vn -0.6092 -0.0401 -0.7920
vn -0.6092 -0.0401 0.7920
vn 0.3637 -0.1830 0.9133
vn 0.3637 -0.1830 -0.9133
vn -0.4555 0.0363 0.8895
vn -0.4555 0.0363 -0.8895
vn -0.6263 0.7796 0.0000
vn 0.0000 -1.0000 0.0000
vn 0.2385 -0.6485 -0.7229
vn 0.6870 -0.5994 -0.4107
vn 0.0000 1.0000 0.0000
vn 0.6873 0.6402 -0.3430
vn 0.2409 0.5947 -0.7670
vn 0.6782 -0.6764 0.2873
vn 0.7015 0.6338 0.3257
vn 0.2150 -0.5694 0.7934
vn 0.3018 0.6618 0.6862
vn -0.3075 -0.6340 0.7095
vn -0.2452 0.6139 0.7503
vn -0.6884 -0.6380 0.3450
vn -0.7111 0.6253 0.3213
vn -0.6973 -0.6185 -0.3622
vn -0.7000 0.6111 -0.3695
vn -0.2016 -0.6349 -0.7458
vn -0.2177 0.6704 -0.7094
vn 0.3151 0.0009 -0.9490
vn 0.8469 -0.0009 -0.5318
vn 0.3052 -0.0022 -0.9523
vn 0.8442 -0.0034 -0.5359
vn 0.3193 0.0002 -0.9476
vn 0.8553 0.0036 -0.5180
vn 0.3492 0.0003 -0.9370
vn 0.8520 0.0016 -0.5235
vn 0.3272 -0.0033 -0.9449
vn 0.8741 -0.0039 -0.4857
vn 0.9126 0.0011 0.4087
vn 0.9157 -0.0034 0.4018
vn 0.9330 0.0008 0.3597
vn 0.9357 0.0020 0.3527
vn 0.9186 0.0039 0.3952
vn 0.2283 0.0088 0.9735
vn 0.2551 -0.0087 0.9669
vn 0.3207 -0.0045 0.9471
vn 0.3257 0.0015 0.9455
vn 0.3631 0.0049 0.9317
vn -0.3651 0.0074 0.9309
vn -0.3392 -0.0119 0.9406
vn -0.3604 -0.0030 0.9328
vn -0.3765 0.0005 0.9264
vn -0.3447 -0.0026 0.9387
vn -0.8820 0.0020 0.4712
vn -0.8809 -0.0028 0.4732
vn -0.9040 0.0033 0.4274
vn -0.9181 -0.0027 0.3963
vn -0.9148 -0.0070 0.4037
vn -0.8880 0.0008 -0.4597
vn -0.8883 0.0035 -0.4592
vn -0.8931 0.0047 -0.4498
vn -0.9028 -0.0046 -0.4300
vn -0.8954 -0.0045 -0.4451
vn -0.2606 0.0008 -0.9654
vn -0.2720 0.0004 -0.9623
vn -0.2977 0.0000 -0.9546
vn -0.2999 -0.0024 -0.9539
vn -0.2913 -0.0011 -0.9566
usemtl Material.005
s 1
f 1/1/1 2/2/2 3/3/3 4/4/4
f 5/5/5 6/6/6 7/7/7 8/8/8
f 2/9/2 9/10/9 10/11/10 3/12/3
f 11/13/11 1/14/1 4/15/4 12/16/12
f 9/10/9 13/17/13 14/18/14 10/11/10
f 13/17/13 5/19/5 8/20/8 14/18/14
f 6/21/6 15/22/15 16/23/16 7/24/7
f 15/22/15 11/13/11 12/16/12 16/23/16
f 17/25/17 18/26/18 19/27/19
f 20/28/20 18/26/18 17/25/17
f 21/29/21 22/30/22 17/31/17 23/32/23
f 23/32/23 24/33/24 25/34/25 21/29/21
f 24/33/24 26/35/26 27/36/27 25/34/25
f 26/35/26 2/2/2 1/1/1 27/36/27
f 5/5/5 28/37/28 29/38/29 6/6/6
f 11/13/11 30/39/30 31/40/31 1/14/1
f 2/9/2 32/41/32 33/42/33 9/10/9
f 32/41/32 34/43/34 35/44/35 33/42/33
f 15/22/15 36/45/36 30/39/30 11/13/11
f 6/21/6 29/46/29 36/45/36 15/22/15
f 13/17/13 37/47/37 28/48/28 5/19/5
f 9/10/9 33/42/33 37/47/37 13/17/13
f 33/42/33 35/44/35 38/49/38 37/47/37
f 21/50/21 39/51/39 22/52/22
f 19/27/19 40/53/40 17/25/17
f 40/53/40 23/54/23 17/25/17
f 25/55/25 41/56/41 39/51/39 21/50/21
f 27/57/27 42/58/42 41/56/41 25/55/25
f 1/14/1 31/40/31 42/58/42 27/57/27
f 26/59/26 43/60/43 32/41/32 2/9/2
f 43/60/43 44/61/44 34/43/34 32/41/32
f 24/62/24 45/63/45 43/60/43 26/59/26
f 45/63/45 46/64/46 44/61/44 43/60/43
f 23/54/23 40/53/40 45/63/45 24/62/24
f 40/53/40 19/27/19 46/64/46 45/63/45
f 47/65/47 48/66/48 49/67/49 50/68/50
f 48/66/48 51/69/51 52/70/52 49/67/49
f 51/69/51 53/71/53 54/72/54 52/70/52
f 55/73/55 56/74/56 57/75/57 58/76/58
f 59/77/59 60/78/60 56/74/56 55/73/55
f 61/79/61 62/80/62 63/81/63 64/82/64
f 64/82/64 63/81/63 65/83/65 66/84/66
f 67/85/67 68/86/68 60/78/60 59/77/59
f 66/84/66 65/83/65 69/87/69 70/88/70
f 58/89/58 57/90/57 62/91/62 61/92/61
f 71/93/71 72/94/72 73/95/73 74/96/74
f 57/90/57 75/97/75 76/98/76 62/91/62
f 75/97/75 77/99/77 78/100/78 76/98/76
f 65/83/65 79/101/79 71/102/71 69/87/69
f 79/101/79 80/103/80 72/104/72 71/102/71
f 68/86/68 74/105/74 81/106/81 60/78/60
f 74/105/74 73/107/73 82/108/82 81/106/81
f 63/81/63 83/109/83 79/101/79 65/83/65
f 83/109/83 84/110/84 80/103/80 79/101/79
f 62/80/62 76/111/76 83/109/83 63/81/63
f 76/111/76 78/112/78 84/110/84 83/109/83
f 60/78/60 81/106/81 85/113/85 56/74/56
f 81/106/81 82/108/82 86/114/86 85/113/85
f 56/74/56 85/113/85 75/115/75 57/75/57
f 85/113/85 86/114/86 77/116/77 75/115/75
f 86/114/86 87/117/87 88/118/88 77/116/77
f 87/117/87 52/70/52 54/72/54 88/118/88
f 82/108/82 89/119/89 87/117/87 86/114/86
f 89/119/89 49/67/49 52/70/52 87/117/87
f 78/112/78 90/120/90 91/121/91 84/110/84
f 90/120/90 53/122/53 51/123/51 91/121/91
f 84/110/84 91/121/91 92/124/92 80/103/80
f 91/121/91 51/123/51 48/125/48 92/124/92
f 73/107/73 93/126/93 89/119/89 82/108/82
f 93/126/93 50/68/50 49/67/49 89/119/89
f 80/103/80 92/124/92 94/127/94 72/104/72
f 92/124/92 48/125/48 47/128/47 94/127/94
f 77/99/77 88/129/88 90/130/90 78/100/78
f 88/129/88 54/131/54 53/132/53 90/130/90
f 72/94/72 94/133/94 93/134/93 73/95/73
f 94/133/94 47/135/47 50/136/50 93/134/93
f 16/137/16 95/138/95 96/139/96 7/140/7
f 95/138/95 55/73/55 58/76/58 96/139/96
f 12/141/12 97/142/97 95/138/95 16/137/16
f 97/142/97 59/77/59 55/73/55 95/138/95
f 8/143/8 98/144/98 99/145/99 14/146/14
f 98/144/98 61/79/61 64/82/64 99/145/99
f 14/146/14 99/145/99 100/147/100 10/148/10
f 99/145/99 64/82/64 66/84/66 100/147/100
f 4/149/4 101/150/101 97/142/97 12/141/12
f 101/150/101 67/85/67 59/77/59 97/142/97
f 10/148/10 100/147/100 102/151/102 3/152/3
f 100/147/100 66/84/66 70/88/70 102/151/102
f 7/7/7 96/153/96 98/154/98 8/8/8
f 96/153/96 58/89/58 61/92/61 98/154/98
f 3/152/3 102/151/102 101/155/101 4/156/4
f 103/157/103 104/158/104 105/159/105 106/160/106
f 104/158/104 107/161/107 108/162/108 105/159/105
f 109/163/109 103/157/103 106/160/106 110/164/110
f 102/151/102 111/165/111 112/166/112 101/155/101
f 111/165/111 109/167/109 110/168/110 112/166/112
f 70/88/70 113/169/113 111/165/111 102/151/102
f 113/169/113 103/170/103 109/167/109 111/165/111
f 101/150/101 112/171/112 114/172/114 67/85/67
f 112/171/112 110/173/110 106/174/106 114/172/114
f 74/96/74 115/175/115 116/176/116 71/93/71
f 115/175/115 108/162/108 107/161/107 116/176/116
f 68/86/68 117/177/117 115/178/115 74/105/74
f 117/177/117 105/179/105 108/180/108 115/178/115
f 71/102/71 116/181/116 118/182/118 69/87/69
f 116/181/116 107/183/107 104/184/104 118/182/118
f 69/87/69 118/182/118 113/169/113 70/88/70
f 118/182/118 104/184/104 103/170/103 113/169/113
f 67/85/67 114/172/114 117/177/117 68/86/68
f 114/172/114 106/174/106 105/179/105 117/177/117
f 119/185/119 38/186/38 36/45/36 29/46/29
f 35/187/35 30/39/30 36/45/36 38/186/38
f 34/188/34 31/40/31 30/39/30 35/187/35
f 34/188/34 44/189/44 42/58/42 31/40/31
f 44/189/44 46/190/46 41/56/41 42/58/42
f 19/191/19 39/51/39 41/56/41 46/190/46
f 18/192/18 22/52/22 39/51/39 19/191/19
f 20/193/20 22/52/22 18/192/18
f 20/194/20 17/31/17 22/30/22
f 119/195/119 29/38/29 28/37/28
f 38/49/38 119/196/119 28/48/28 37/47/37
f 120/197/120 121/198/121 122/199/122
f 123/200/123 124/201/124 125/202/125
f 120/197/120 122/199/122 126/203/126
f 123/200/123 127/204/127 124/201/124
f 120/197/120 126/203/126 128/205/128
f 123/200/123 129/206/129 127/204/127
f 120/197/120 128/205/128 130/207/130
f 123/200/123 131/208/131 129/206/129
f 120/197/120 130/207/130 132/209/132
f 123/200/123 133/210/133 131/208/131
f 120/197/120 132/209/132 134/211/134
f 123/200/123 135/212/135 133/210/133
f 120/197/120 134/211/134 136/213/136
f 123/200/123 137/214/137 135/212/135
f 136/213/136 121/198/121 120/197/120
f 123/200/123 125/202/125 137/214/137
f 121/215/121 138/216/138 139/217/139 122/218/122
f 138/216/138 140/219/140 141/220/141 139/217/139
f 140/219/140 142/221/142 143/222/143 141/220/141
f 142/221/142 144/223/144 145/224/145 143/222/143
f 144/223/144 146/225/146 147/226/147 145/224/145
f 146/225/146 125/227/125 124/228/124 147/226/147
f 122/218/122 139/217/139 148/229/148 126/230/126
f 139/217/139 141/220/141 149/231/149 148/229/148
f 141/220/141 143/222/143 150/232/150 149/231/149
f 143/222/143 145/224/145 151/233/151 150/232/150
f 145/224/145 147/226/147 152/234/152 151/233/151
f 147/226/147 124/228/124 127/235/127 152/234/152
f 126/230/126 148/229/148 153/236/153 128/237/128
f 148/229/148 149/231/149 154/238/154 153/236/153
f 149/231/149 150/232/150 155/239/155 154/238/154
f 150/232/150 151/233/151 156/240/156 155/239/155
f 151/233/151 152/234/152 157/241/157 156/240/156
f 152/234/152 127/235/127 129/242/129 157/241/157
f 128/237/128 153/236/153 158/243/158 130/244/130
f 153/236/153 154/238/154 159/245/159 158/243/158
f 154/238/154 155/239/155 160/246/160 159/245/159
f 155/239/155 156/240/156 161/247/161 160/246/160
f 156/240/156 157/241/157 162/248/162 161/247/161
f 157/241/157 129/242/129 131/249/131 162/248/162
f 130/244/130 158/243/158 163/250/163 132/251/132
f 158/243/158 159/245/159 164/252/164 163/250/163
f 159/245/159 160/246/160 165/253/165 164/252/164
f 160/246/160 161/247/161 166/254/166 165/253/165
f 161/247/161 162/248/162 167/255/167 166/254/166
f 162/248/162 131/249/131 133/256/133 167/255/167
f 132/251/132 163/250/163 168/257/168 134/258/134
f 163/250/163 164/252/164 169/259/169 168/257/168
f 164/252/164 165/253/165 170/260/170 169/259/169
f 165/253/165 166/254/166 171/261/171 170/260/170
f 166/254/166 167/255/167 172/262/172 171/261/171
f 167/255/167 133/256/133 135/263/135 172/262/172
f 134/258/134 168/257/168 173/264/173 136/265/136
f 168/257/168 169/259/169 174/266/174 173/264/173
f 169/259/169 170/260/170 175/267/175 174/266/174
f 170/260/170 171/261/171 176/268/176 175/267/175
f 171/261/171 172/262/172 177/269/177 176/268/176
f 172/262/172 135/263/135 137/270/137 177/269/177
f 125/227/125 146/225/146 177/271/177 137/272/137
f 146/225/146 144/223/144 176/273/176 177/271/177
f 144/223/144 142/221/142 175/274/175 176/273/176
f 142/221/142 140/219/140 174/275/174 175/274/175
f 140/219/140 138/216/138 173/276/173 174/275/174
f 138/216/138 121/215/121 136/277/136 173/276/173
